<svg width="40" height="40" viewBox="0 0 40 40" fill="none" xmlns="http://www.w3.org/2000/svg">
    <path d="M38.9062 6.65625L37.5312 28.0938L24.4688 0L38.9062 6.65625ZM29.8438 34.375L20 40L10.1562 34.375L12.1562 29.5312H27.875L29.8438 34.375ZM20 10.6562L25.1562 23.2188H14.8438L20 10.6562ZM2.46875 28.0938L1.09375 6.65625L15.5312 0L2.46875 28.0938Z" fill="url(#paint0_linear_12_83)"/>
    <path d="M38.9062 6.65625L37.5312 28.0938L24.4688 0L38.9062 6.65625ZM29.8438 34.375L20 40L10.1562 34.375L12.1562 29.5312H27.875L29.8438 34.375ZM20 10.6562L25.1562 23.2188H14.8438L20 10.6562ZM2.46875 28.0938L1.09375 6.65625L15.5312 0L2.46875 28.0938Z" fill="url(#paint1_linear_12_83)"/>
    <defs>
    <linearGradient id="paint0_linear_12_83" x1="4.595" y1="26.1656" x2="34.6828" y2="11.8675" gradientUnits="userSpaceOnUse">
    <stop stop-color="#E40035"/>
    <stop offset="0.24" stop-color="#F60A48"/>
    <stop offset="0.352" stop-color="#F20755"/>
    <stop offset="0.494" stop-color="#DC087D"/>
    <stop offset="0.745" stop-color="#9717E7"/>
    <stop offset="1" stop-color="#6C00F5"/>
    </linearGradient>
    <linearGradient id="paint1_linear_12_83" x1="8.97906" y1="4.04031" x2="28.6694" y2="26.5016" gradientUnits="userSpaceOnUse">
    <stop stop-color="#FF31D9"/>
    <stop offset="1" stop-color="#FF5BE1" stop-opacity="0"/>
    </linearGradient>
    </defs>
</svg>