<svg width="50" height="40" viewBox="0 0 50 40" fill="none" xmlns="http://www.w3.org/2000/svg">
<g clip-path="url(#clip0_51_8)">
<path d="M10.3852 0C7.53223 0 5.42109 2.50686 5.51562 5.22549C5.60645 7.83725 5.48848 11.2202 4.64023 13.9788C3.78945 16.7455 2.35039 18.498 0 18.7231V21.2635C2.35039 21.4886 3.78945 23.2412 4.64023 26.008C5.48848 28.7667 5.60645 32.1492 5.51562 34.7612C5.42109 37.4794 7.53223 39.9867 10.3855 39.9867H39.6186C42.4717 39.9867 44.5822 37.4798 44.4877 34.7612C44.3971 32.1494 44.5148 28.7667 45.3631 26.008C46.2145 23.2414 47.6496 21.4884 50 21.2635V18.7231C47.6496 18.498 46.2145 16.7455 45.3633 13.9788C44.5148 11.2206 44.3971 7.83745 44.4877 5.22549C44.5822 2.50725 42.4717 0 39.6186 0H10.3852ZM33.8984 24.6143C33.8984 28.3578 31.1172 30.628 26.5016 30.628H18.6441C18.4194 30.628 18.2039 30.5383 18.045 30.3788C17.8861 30.2192 17.7969 30.0029 17.7969 29.7773V10.2094C17.7968 10.0977 17.8188 9.98702 17.8613 9.88377C17.9039 9.78053 17.9663 9.68671 18.045 9.60769C18.1237 9.52867 18.2172 9.46598 18.32 9.42321C18.4228 9.38044 18.533 9.35843 18.6443 9.35843H26.4566C30.3053 9.35843 32.8311 11.4516 32.8311 14.6649C32.8311 16.9204 31.1318 18.9396 28.9672 19.2931V19.411C31.9143 19.7355 33.8984 21.7843 33.8984 24.6143ZM25.6445 12.0555H21.1646V18.4084H24.9381C27.8549 18.4084 29.4635 17.2292 29.4635 15.1214C29.4635 13.1463 28.0801 12.0555 25.6445 12.0555ZM21.1648 20.9292V27.9302H25.8098C28.8465 27.9302 30.4555 26.7069 30.4555 24.4076C30.4555 22.108 28.8018 20.9288 25.6145 20.9288L21.1648 20.9292Z" fill="#7E13F8"/>
</g>
<defs>
<clipPath id="clip0_51_8">
<rect width="50" height="40" fill="white"/>
</clipPath>
</defs>
</svg>
