<svg width="41" height="40" viewBox="0 0 41 40" fill="none" xmlns="http://www.w3.org/2000/svg">
    <path d="M36.2054 9.59375L21.1116 0.90625C20.8616 0.75 20.5179 0.6875 20.1429 0.6875C19.7679 0.6875 19.4241 0.78125 19.1741 0.90625L4.17413 9.625C3.64288 9.9375 3.26788 10.7188 3.26788 11.3125V28.7188C3.26788 29.0625 3.33038 29.4688 3.58038 29.8125L36.9554 10.4375C36.7679 10.0625 36.4866 9.78125 36.2054 9.59375Z" fill="#9B4F96"/>
    <path d="M3.48663 29.7813C3.64288 30.0313 3.86163 30.25 4.08038 30.375L19.1429 39.0938C19.3929 39.25 19.7366 39.3125 20.1116 39.3125C20.4866 39.3125 20.8304 39.2188 21.0804 39.0938L36.0804 30.375C36.6116 30.0625 36.9866 29.2813 36.9866 28.6875V11.2812C36.9866 11 36.9554 10.6875 36.7991 10.4062L3.48663 29.7813Z" fill="#68217A"/>
    <path d="M26.7991 23.7812C25.4866 26.0938 22.9866 27.6562 20.1429 27.6562C15.9241 27.6562 12.4866 24.2188 12.4866 20C12.4866 15.7812 15.9241 12.3438 20.1429 12.3438C22.9866 12.3438 25.4866 13.9062 26.7991 16.25L30.8616 13.9062C28.7366 10.1875 24.7366 7.65625 20.1429 7.65625C13.3304 7.65625 7.79913 13.1875 7.79913 20C7.79913 26.8125 13.3304 32.3438 20.1429 32.3438C24.7054 32.3438 28.7054 29.8438 30.8304 26.1562L26.7991 23.7812ZM30.4554 20.6875L30.7366 19.3438H29.4241V17.875H31.0179L31.3929 15.9375H32.9241L32.5491 17.8438H33.7366L34.1116 15.9375H35.6116L35.2366 17.8438H35.9866V19.3125H34.9554L34.6741 20.6562H35.9866V22.125H34.3929L34.0179 24H32.4866L32.8616 22.125H31.6741L31.2991 24H29.7991L30.1741 22.125H29.4241V20.6562H30.4554V20.6875ZM31.9554 20.6875H33.1429L33.4241 19.3438H32.2366L31.9554 20.6875Z" fill="white"/>
</svg>