<svg width="50" height="40" viewBox="0 0 50 40" fill="none" xmlns="http://www.w3.org/2000/svg">
<g clip-path="url(#clip0_51_26)">
<path d="M48.9682 15.2426C47.8422 14.3777 45.2619 14.0534 43.2447 14.4858C43.0103 12.3237 41.9312 10.432 40.0547 8.75632L38.9758 7.89146L38.225 9.1347C37.2869 10.7563 36.8178 13.0266 36.9584 15.1888C37.0053 15.9453 37.2398 17.2966 37.9436 18.4858C37.2869 18.9183 35.9264 19.4588 34.1437 19.4588H0.225777L0.132027 19.8912C-0.196489 22.0532 -0.196489 28.8097 3.65039 33.9987C6.55898 37.9444 10.875 39.9444 16.5514 39.9444C28.8424 39.9444 37.9436 33.4039 42.2127 21.5667C43.9016 21.6208 47.5139 21.5667 49.3435 17.5126C49.3904 17.4045 49.4842 17.1883 49.8125 16.3777L50.0002 15.9453L48.9682 15.2426ZM27.3412 0H22.1811V5.40519H27.3412V0ZM27.3412 6.48627H22.1811V11.8915H27.3412V6.48627ZM21.2426 6.48627H16.0824V11.8915H21.2426V6.48627ZM15.1439 6.48627H9.98359V11.8915H15.1439V6.48627ZM9.04531 12.9725H3.88496V18.3777H9.04511L9.04531 12.9725ZM15.1439 12.9725H9.98359V18.3777H15.1439V12.9725ZM21.2426 12.9725H16.0824V18.3777H21.2426V12.9725ZM27.3414 12.9725H22.1809V18.3777H27.3414V12.9725ZM33.44 12.9725H28.2795V18.3777H33.44V12.9725Z" fill="#2396ED"/>
</g>
<defs>
<clipPath id="clip0_51_26">
<rect width="50" height="40" fill="white"/>
</clipPath>
</defs>
</svg>
