<svg width="30" height="40" viewBox="0 0 30 40" fill="none" xmlns="http://www.w3.org/2000/svg">
<g clip-path="url(#clip0_51_20)">
<path d="M7.5 40C11.64 40 15 37.0133 15 33.3333V26.6667H7.5C3.36 26.6667 0 29.6533 0 33.3333C0 37.0133 3.36 40 7.5 40Z" fill="#0ACF83"/>
<path d="M0 20C0 16.32 3.36 13.3333 7.5 13.3333H15V26.6667H7.5C3.36 26.6667 0 23.68 0 20Z" fill="#A259FF"/>
<path d="M0 6.66667C0 2.98667 3.36 0 7.5 0H15V13.3333H7.5C3.36 13.3333 0 10.3467 0 6.66667Z" fill="#F24E1E"/>
<path d="M15 0H22.5C26.64 0 30 2.98667 30 6.66667C30 10.3467 26.64 13.3333 22.5 13.3333H15V0Z" fill="#FF7262"/>
<path d="M30 20C30 23.68 26.64 26.6667 22.5 26.6667C18.36 26.6667 15 23.68 15 20C15 16.32 18.36 13.3333 22.5 13.3333C26.64 13.3333 30 16.32 30 20Z" fill="#1ABCFE"/>
</g>
<defs>
<clipPath id="clip0_51_20">
<rect width="30" height="40" fill="white"/>
</clipPath>
</defs>
</svg>
