<svg width="40" height="40" viewBox="0 0 40 40" fill="none" xmlns="http://www.w3.org/2000/svg">
<g clip-path="url(#clip0_51_56)">
<path d="M5.46057 32.2737L10.384 0.769367C10.4135 0.581088 10.5014 0.406832 10.6353 0.27121C10.7692 0.135588 10.9423 0.0454558 11.1302 0.0135433C11.318 -0.0183691 11.5112 0.00955126 11.6824 0.0933609C11.8535 0.177171 11.994 0.312634 12.084 0.480617L17.1759 9.97749L19.2053 6.11312C19.2824 5.96654 19.3982 5.84381 19.54 5.7582C19.6818 5.67259 19.8443 5.62735 20.0099 5.62735C20.1756 5.62735 20.3381 5.67259 20.4799 5.7582C20.6217 5.84381 20.7375 5.96654 20.8146 6.11312L34.5553 32.2737H5.46057Z" fill="#FFA000"/>
<path d="M22.4696 20.0016L17.1734 9.97281L5.46057 32.2737L22.4696 20.0016Z" fill="#F57C00"/>
<path d="M34.5553 32.2737L30.7843 8.93874C30.7565 8.77425 30.6839 8.6206 30.5745 8.4946C30.4652 8.3686 30.3233 8.27511 30.1643 8.22437C30.0054 8.17375 29.8357 8.16779 29.6737 8.20714C29.5116 8.2465 29.3635 8.32964 29.2456 8.44749L5.46057 32.2734L18.6215 39.6541C19.028 39.8809 19.4857 40 19.9512 40C20.4167 40 20.8744 39.8809 21.2809 39.6541L34.5553 32.2737Z" fill="#FFCA28"/>
<path d="M30.7844 8.93876C30.7565 8.77427 30.6839 8.62061 30.5746 8.49461C30.4652 8.36862 30.3233 8.27513 30.1644 8.22438C30.0055 8.17373 29.8358 8.16772 29.6738 8.20702C29.5118 8.24631 29.3636 8.3294 29.2456 8.44719L24.5247 13.1806L20.8125 6.11313C20.7354 5.96655 20.6196 5.84383 20.4778 5.75822C20.336 5.67261 20.1735 5.62736 20.0078 5.62736C19.8422 5.62736 19.6797 5.67261 19.5379 5.75822C19.396 5.84383 19.2803 5.96655 19.2031 6.11313L17.1738 9.97719L12.0819 0.480632C11.9918 0.312417 11.851 0.176813 11.6796 0.0930227C11.5081 0.00923206 11.3147 -0.0184988 11.1266 0.0137572C10.9386 0.0460042 10.7656 0.136525 10.6319 0.272517C10.4982 0.408509 10.4106 0.58309 10.3816 0.77157L5.46064 32.2738H5.4447L5.46033 32.2919L5.59001 32.3556L29.2388 8.67938C29.3567 8.56092 29.505 8.47726 29.6674 8.43759C29.8298 8.39792 29.9999 8.40377 30.1592 8.45451C30.3185 8.50524 30.4607 8.59889 30.5702 8.72517C30.6797 8.85145 30.7523 9.00547 30.78 9.17032L34.5191 32.2963L34.5553 32.2734L30.7844 8.93876ZM5.50376 32.2306L10.3838 0.994382C10.4128 0.805802 10.5003 0.631119 10.6341 0.495061C10.7679 0.359003 10.941 0.268463 11.1291 0.236257C11.3172 0.204029 11.5107 0.231806 11.6821 0.315654C11.8536 0.399503 11.9943 0.535172 12.0844 0.703445L17.1756 10.2003L19.2053 6.33594C19.2825 6.18936 19.3982 6.06664 19.54 5.98103C19.6819 5.89542 19.8444 5.85017 20.01 5.85017C20.1757 5.85017 20.3382 5.89542 20.48 5.98103C20.6218 6.06664 20.7375 6.18936 20.8147 6.33594L24.4516 13.2531L5.50314 32.2306H5.50376Z" fill="white" fill-opacity="0.2"/>
<path opacity="0.2" d="M21.2809 39.4313C20.8744 39.6581 20.4167 39.7772 19.9512 39.7772C19.4857 39.7772 19.028 39.6581 18.6215 39.4313L5.49184 32.0719L5.45996 32.2741L18.6209 39.6522C19.0274 39.8791 19.4851 39.9982 19.9506 39.9982C20.4161 39.9982 20.8738 39.8791 21.2803 39.6522L34.5553 32.2741L34.5209 32.0647L21.2803 39.4319L21.2809 39.4313Z" fill="#A52714"/>
</g>
<defs>
<clipPath id="clip0_51_56">
<rect width="40" height="40" fill="white"/>
</clipPath>
</defs>
</svg>
