<svg width="41" height="50" viewBox="0 0 41 50" fill="none" xmlns="http://www.w3.org/2000/svg">
    <g clip-path="url(#clip0_14_315)">
    <path d="M13.3276 38.6522C13.3276 38.6522 11.2655 39.7613 14.7953 40.1366C19.0717 40.5877 21.2572 40.5231 25.9698 39.6981C25.9698 39.6981 27.2089 40.4166 28.9391 41.039C18.3748 45.2265 5.02984 40.7964 13.3276 38.6522ZM12.0367 33.1877C12.0367 33.1877 9.72374 34.7713 13.2562 35.1091C17.8244 35.545 21.4319 35.5807 27.6744 34.469C27.6744 34.469 28.5378 35.2785 29.8955 35.7213C17.1225 39.1756 2.89577 35.9937 12.0367 33.1877Z" fill="#5382A1"/>
    <path d="M22.9195 23.9183C25.5227 26.69 22.2356 29.1842 22.2356 29.1842C22.2356 29.1842 28.8452 26.0286 25.8097 22.0769C22.9747 18.3919 20.8005 16.5607 32.5703 10.2477C32.5703 10.2477 14.0956 14.5152 22.9195 23.9183Z" fill="#E76F00"/>
    <path d="M36.8917 42.6939C36.8917 42.6939 38.4178 43.8568 35.2109 44.7565C29.1131 46.465 9.83093 46.9809 4.47437 44.8246C2.5489 44.05 6.15984 42.9749 7.29562 42.7491C8.48015 42.5116 9.15718 42.5559 9.15718 42.5559C7.01578 41.1607 -4.68391 45.2954 3.21437 46.4793C24.7539 49.71 42.4787 45.0247 36.8917 42.6939ZM14.3192 27.526C14.3192 27.526 4.51125 29.6806 10.8461 30.4629C13.5208 30.7941 18.8528 30.7192 23.8195 30.3342C27.8786 30.0178 31.9544 29.3444 31.9544 29.3444C31.9544 29.3444 30.5231 29.9113 29.4876 30.5652C19.5277 32.9879 0.286714 31.8608 5.82593 29.3827C10.5105 27.2884 14.3192 27.526 14.3192 27.526ZM31.9139 36.6217C42.0389 31.7558 37.3575 27.0798 34.09 27.7098C33.2891 27.8639 32.932 27.9974 32.932 27.9974C32.932 27.9974 33.2294 27.5668 33.7972 27.3803C40.2612 25.2785 45.2327 33.5793 31.7105 36.8669C31.7105 36.867 31.8672 36.7376 31.9139 36.6217Z" fill="#5382A1"/>
    <path d="M25.8097 0.0536113C25.8097 0.0536113 31.417 5.24147 20.4914 13.2185C11.7303 19.6176 18.4936 23.2662 20.4878 27.4348C15.3737 23.1675 11.6206 19.4108 14.1386 15.9146C17.8341 10.7821 28.072 8.29393 25.8097 0.0536113Z" fill="#E76F00"/>
    <path d="M15.3142 49.8071C25.0328 50.3825 39.9567 49.4878 40.3102 45.2348C40.3102 45.2348 39.6308 46.8472 32.2783 48.1276C23.9833 49.5712 13.7527 49.4027 7.68468 48.4774C7.68484 48.4774 8.92672 49.4283 15.3142 49.8071Z" fill="#5382A1"/>
    </g>
    <defs>
    <clipPath id="clip0_14_315">
    <rect width="40" height="50" fill="white" transform="translate(0.428589)"/>
    </clipPath>
    </defs>
</svg>