<svg width="30" height="40" viewBox="0 0 30 40" fill="none" xmlns="http://www.w3.org/2000/svg">
<g clip-path="url(#clip0_14_315)">
<path d="M9.67429 30.9217C9.67429 30.9217 8.12765 31.809 10.775 32.1092C13.9823 32.4702 15.6214 32.4185 19.1559 31.7585C19.1559 31.7585 20.0852 32.3333 21.3828 32.8312C13.4597 36.1812 3.45093 32.6371 9.67429 30.9217ZM8.70609 26.5502C8.70609 26.5502 6.97136 27.817 9.62074 28.0873C13.0468 28.436 15.7525 28.4645 20.4343 27.5751C20.4343 27.5751 21.0819 28.2228 22.1002 28.577C12.5204 31.3405 1.85039 28.7949 8.70609 26.5502Z" fill="#5382A1"/>
<path d="M16.8682 19.1347C18.8205 21.352 16.3553 23.3474 16.3553 23.3474C16.3553 23.3474 21.3124 20.8229 19.0358 17.6615C16.9096 14.7135 15.2789 13.2485 24.1063 8.19812C24.1063 8.19812 10.2503 11.6121 16.8682 19.1347Z" fill="#E76F00"/>
<path d="M27.3473 34.1552C27.3473 34.1552 28.4919 35.0854 26.0868 35.8052C21.5134 37.172 7.05176 37.5847 3.03434 35.8597C1.59023 35.24 4.29844 34.3799 5.15027 34.1993C6.03867 34.0093 6.54645 34.0447 6.54645 34.0447C4.94039 32.9286 -3.83437 36.2363 2.08934 37.1835C18.244 39.768 31.5376 36.0198 27.3473 34.1552ZM10.418 22.0208C10.418 22.0208 3.06199 23.7445 7.81313 24.3703C9.81914 24.6353 13.8182 24.5754 17.5432 24.2674C20.5875 24.0142 23.6443 23.4755 23.6443 23.4755C23.6443 23.4755 22.5709 23.929 21.7943 24.4521C14.3243 26.3903 -0.106406 25.4887 4.04801 23.5061C7.56141 21.8308 10.418 22.0208 10.418 22.0208ZM23.614 29.2973C31.2077 25.4046 27.6967 21.6638 25.2461 22.1679C24.6454 22.2911 24.3776 22.3979 24.3776 22.3979C24.3776 22.3979 24.6006 22.0534 25.0264 21.9043C29.8745 20.2228 33.603 26.8635 23.4614 29.4935C23.4614 29.4937 23.5789 29.3901 23.614 29.2973Z" fill="#5382A1"/>
<path d="M19.0358 0.0429012C19.0358 0.0429012 23.2413 4.19319 15.0471 10.5748C8.47629 15.6941 13.5488 18.613 15.0444 21.9479C11.2089 18.534 8.39403 15.5287 10.2825 12.7317C13.0541 8.62568 20.7326 6.63516 19.0358 0.0429012Z" fill="#E76F00"/>
<path d="M11.1642 39.8457C18.4532 40.306 29.6461 39.5903 29.9112 36.1879C29.9112 36.1879 29.4016 37.4778 23.8873 38.5021C17.666 39.657 9.99305 39.5222 5.44207 38.782C5.44219 38.782 6.37359 39.5427 11.1642 39.8457Z" fill="#5382A1"/>
</g>
<defs>
<clipPath id="clip0_14_315">
<rect width="30" height="40" fill="white"/>
</clipPath>
</defs>
</svg>
