<svg width="40" height="40" viewBox="0 0 40 40" fill="none" xmlns="http://www.w3.org/2000/svg">
<g clip-path="url(#clip0_51_14)">
<path d="M38.2278 0H19.0167C19.0167 2.30001 19.9304 4.50581 21.5567 6.13216C23.1831 7.75851 25.3889 8.67219 27.6889 8.67219H31.2278V12.0891C31.2309 16.8742 35.1092 20.7527 39.8944 20.7558V1.66656C39.8944 0.746406 39.1484 0 38.2278 0Z" fill="#2684FF"/>
<path d="M28.7222 9.57217H9.51123C9.5142 14.3573 13.3925 18.2358 18.1778 18.2389H21.7167V21.6667C21.7228 26.4519 25.6037 30.3276 30.3889 30.3276V11.239C30.3889 10.3186 29.6426 9.57217 28.7222 9.57217Z" fill="url(#paint0_linear_51_14)"/>
<path d="M19.2111 19.1389H0C0 23.9284 3.88281 27.8111 8.67219 27.8111H12.2222V31.2278C12.2253 36.0086 16.0969 39.8853 20.8778 39.8944V20.8056C20.8778 19.8852 20.1316 19.1389 19.2111 19.1389Z" fill="url(#paint1_linear_51_14)"/>
</g>
<defs>
<linearGradient id="paint0_linear_51_14" x1="2056.17" y1="12.9138" x2="1243.93" y2="860.454" gradientUnits="userSpaceOnUse">
<stop offset="0.18" stop-color="#0052CC"/>
<stop offset="1" stop-color="#2684FF"/>
</linearGradient>
<linearGradient id="paint1_linear_51_14" x1="2101.66" y1="28.5827" x2="1162.1" y2="952.989" gradientUnits="userSpaceOnUse">
<stop offset="0.18" stop-color="#0052CC"/>
<stop offset="1" stop-color="#2684FF"/>
</linearGradient>
<clipPath id="clip0_51_14">
<rect width="40" height="40" fill="white"/>
</clipPath>
</defs>
</svg>
