<svg width="55" height="40" viewBox="0 0 55 40" fill="none" xmlns="http://www.w3.org/2000/svg">
    <g clip-path="url(#clip0_14_305)">
    <path d="M16.3614 26.3951L18.0329 32.1815C18.4085 33.4953 18.5651 34.4125 18.5023 34.9352C19.4165 32.323 20.0552 29.4762 20.4186 26.3951H22.4285C21.5643 31.4112 20.4244 35.0564 19.0096 37.3303C17.9072 39.0826 16.6996 39.9587 15.3845 39.9587C15.0339 39.9587 14.6016 39.8457 14.0887 39.6213V38.4121C14.3393 38.4513 14.6333 38.4723 14.9715 38.4723C15.585 38.4723 16.0794 38.2909 16.4556 37.9288C16.9061 37.4877 17.1315 36.9919 17.1315 36.4423C17.1315 36.067 16.9557 35.297 16.6056 34.132L14.2767 26.3951H16.3614ZM3.56888 22.8385L6.6304 32.8048H6.64931L9.72963 22.8385H12.2463C12.7974 27.7811 13.1229 32.3034 13.2228 36.4025H11.101C11.0263 32.5706 10.8195 28.9674 10.4814 25.5922H10.4629L7.23186 36.4025H5.61602L2.40453 25.5922H2.38563C2.14736 28.8337 1.9974 32.4369 1.93488 36.4025H0C0.125039 31.5796 0.437959 27.0587 0.93876 22.8385H3.56888Z" fill="#00758F"/>
    <path d="M37.866 22.6373C41.1592 22.6373 42.8059 24.8821 42.8059 29.3695C42.8059 31.808 42.3107 33.65 41.3212 34.8943C41.1429 35.1217 40.9458 35.3182 40.7382 35.5002L43.0688 36.7296L43.0665 36.7295L42.239 38.2541L39.204 36.3647C38.701 36.5237 38.1474 36.6031 37.5443 36.6031C35.9272 36.6031 34.7194 36.1003 33.9208 35.0959C33.0443 33.9849 32.6062 32.2358 32.6062 29.8516C32.6062 27.4268 33.1005 25.5919 34.0903 24.3459C34.9918 23.2062 36.2506 22.6373 37.866 22.6373ZM27.7812 22.6569C28.9583 22.6569 30.0285 22.9929 30.9925 23.6626L30.5029 24.8267C29.678 24.4526 28.8647 24.2648 28.0627 24.2648C27.4119 24.2648 26.9105 24.4319 26.5609 24.7681C26.2094 25.1014 25.992 25.5303 25.992 26.0532C25.992 26.8566 26.5285 27.5534 27.519 28.142C27.8435 28.3313 28.1669 28.5227 28.4891 28.7163L28.563 28.7607L28.6001 28.7829L28.6741 28.8273L28.7111 28.8495L28.785 28.894C29.5348 29.345 30.2403 29.7755 30.2403 29.7755C31.2308 30.5256 31.7245 31.3254 31.7245 32.6426C31.7245 33.793 31.3294 34.7373 30.5418 35.4762C29.7536 36.2118 28.6947 36.5806 27.3687 36.5806C26.1285 36.5806 24.9266 36.1561 23.7624 35.3142L24.307 34.149C25.3089 34.6848 26.2156 34.9524 27.0297 34.9524C27.7933 34.9524 28.391 34.7706 28.8233 34.4114C29.2548 34.0495 29.5134 33.5449 29.5134 32.905C29.5134 32.0996 28.9883 31.4111 28.0251 30.8336C27.7236 30.6559 27.423 30.4764 27.1233 30.2953L27.0495 30.2507C26.9139 30.169 26.7774 30.0862 26.6436 30.0052L26.5711 29.9612C25.9207 29.5664 25.3583 29.2216 25.3583 29.2216C24.3954 28.47 23.9125 27.6637 23.9125 26.3351C23.9125 25.2363 24.2726 24.3482 24.9917 23.6726C25.7125 22.9954 26.6424 22.6569 27.7812 22.6569ZM46.6762 22.8384V34.7339H50.6764V36.4024H44.6474V22.8385L46.6762 22.8384ZM52.8991 34.739V35.021H52.4594V36.4009H52.1231V35.021H51.6663V34.739H52.8991ZM53.7113 34.739L54.1335 35.8719L54.5214 34.739H54.9981V36.4009H54.6812V35.1362L54.2397 36.4009H54.0112L53.5689 35.1362H53.5519V36.4009H53.2521V34.739H53.7113ZM37.6589 24.3053C35.7182 24.3053 34.7473 26.0142 34.7473 29.4297C34.7473 31.3861 35.0046 32.8048 35.5182 33.6891C35.9938 34.5074 36.7388 34.9158 37.7532 34.9158C39.6939 34.9158 40.6647 33.1936 40.6647 29.7508C40.6647 27.8218 40.4074 26.4153 39.8944 25.5306C39.4182 24.7141 38.6736 24.3053 37.659 24.3053" fill="#F29111"/>
    <path d="M32.5722 0.840405C33.216 -0.847388 35.4671 0.430778 36.3406 1.02035C36.5547 1.16786 36.8003 1.47949 37.0457 1.59467C37.4287 1.61072 37.8113 1.6427 38.1949 1.65978C38.9144 1.84018 39.5884 1.98757 40.1554 2.3321C42.7902 3.98768 44.5054 5.67479 46.084 8.46149C46.4213 9.05175 46.5898 9.69049 46.8654 10.3292C47.2478 11.2813 47.6775 12.2807 48.1213 13.181C48.3201 13.6079 48.4738 14.0825 48.7498 14.4429C48.8575 14.6077 49.1636 14.6563 49.3465 14.7548C49.8522 15.0341 50.465 15.2461 50.9406 15.5739C51.8289 16.1649 52.6877 16.8691 53.4685 17.59C53.7595 17.8683 53.9578 18.2622 54.235 18.5565V18.705C53.9889 18.7856 53.7437 18.8681 53.4982 18.9343C52.9621 19.0812 52.4872 19.048 51.9671 19.195C51.6456 19.2945 51.2466 19.4257 50.9095 19.4591L50.9406 19.4926C51.1389 20.0971 52.2119 20.5888 52.7026 20.9504C53.2985 21.4093 53.8508 21.9659 54.2953 22.6051C54.4488 22.7682 54.6023 22.9166 54.7551 23.0793C54.8619 23.2441 54.8919 23.4573 55 23.6042V23.6539C54.8803 23.6089 54.7943 23.5229 54.7128 23.4331L54.6641 23.3789C54.6154 23.325 54.5663 23.272 54.5104 23.2284C54.1722 22.982 53.8364 22.6872 53.4982 22.4581C52.9169 22.0645 52.2426 21.8361 51.6456 21.441C51.3081 21.2116 50.9864 20.9504 50.6647 20.688C50.373 20.4579 50.0518 20.0162 49.8686 19.6884C49.7606 19.5073 49.7458 19.2945 49.6225 19.1635C49.6445 18.9447 49.8324 18.8797 50.022 18.8263L50.0656 18.814C50.131 18.7959 50.195 18.7778 50.2509 18.7539C51.0473 18.3931 51.9968 18.2622 53.2229 18.295C53.1767 17.9665 52.4106 17.5572 52.166 17.3605C51.6751 16.983 51.1553 16.5891 50.6345 16.2454C50.3585 16.0655 49.883 15.9342 49.5772 15.7871C49.1636 15.6067 48.2441 15.4264 48.0149 15.0828C47.6255 14.5412 47.3458 13.8951 47.0742 13.2425L47.0003 13.0644C46.9756 13.005 46.9509 12.9457 46.9262 12.8864C46.6052 12.1005 46.2064 11.2811 45.8847 10.4764C45.7165 10.0838 45.6393 9.73932 45.455 9.36281C44.3371 7.05244 42.6825 5.11811 40.6764 3.75777C40.0171 3.31513 39.282 2.90551 38.4706 2.62711C38.0107 2.47892 37.4588 2.56086 36.9688 2.44717H36.6463C36.3711 2.36442 36.1413 2.05313 35.9266 1.889C35.4523 1.54539 34.9773 1.31467 34.4101 1.06952C34.2114 0.971179 33.6439 0.742182 33.4458 0.922468C33.3231 0.955362 33.2609 1.00476 33.2307 1.13611C33.1087 1.3321 33.216 1.62734 33.292 1.80808C33.5221 2.33187 33.8435 2.64316 34.1352 3.08579C34.3948 3.47834 34.7171 3.92098 34.9012 4.3478C35.2982 5.26528 35.4831 6.28178 35.851 7.19914C35.9874 7.54413 36.2032 7.93668 36.4018 8.24786C36.5702 8.49485 36.8762 8.67341 36.9688 8.98608C37.1534 9.31387 36.6925 10.3955 36.5858 10.739C36.1868 12.083 36.2641 13.9514 36.7237 15.1164L36.7482 15.1778L36.7727 15.2401C36.9404 15.6668 37.1201 16.1263 37.5662 16.2456C37.5969 16.213 37.5662 16.2301 37.6271 16.213C37.735 15.3112 37.7654 14.4428 38.0568 13.7373C38.2251 13.2961 38.5612 12.9842 38.7916 12.6241C38.9453 12.7222 38.9453 13.0181 39.0368 13.2138C39.2362 13.7216 39.4503 14.2782 39.696 14.7875C40.2005 15.8362 40.7681 16.8529 41.4112 17.7703C41.6266 18.0979 41.9322 18.4586 42.2079 18.7538C42.3307 18.868 42.4682 18.934 42.5604 19.0811H42.5905V19.1306C42.131 18.9499 41.8396 18.4426 41.4731 18.1464C40.783 17.5897 39.9566 16.7538 39.481 15.9516C39.282 15.4911 39.067 15.0497 38.8526 14.5915V14.5583C38.7609 14.6892 38.7916 14.8192 38.7458 15.0173C38.5468 15.8362 38.7 16.7704 38.0107 17.0649C37.2293 17.4099 36.6464 16.5083 36.4018 16.0985C35.6202 14.7385 35.4061 12.4442 35.9573 10.5922C36.0798 10.1822 36.0964 9.69049 36.3102 9.36316C36.264 9.06723 36.0502 8.98631 35.9266 8.80499C35.7122 8.49508 35.5286 8.13404 35.3607 7.78986C35.0382 7.11754 34.8088 6.31422 34.564 5.59318C34.4563 5.29874 34.4255 5.00316 34.3182 4.72442C34.1351 4.29897 33.7977 3.87215 33.5374 3.49576C33.185 2.95479 32.1585 1.90631 32.5722 0.840405ZM37.5966 4.05129C37.6375 4.09508 37.6869 4.13336 37.7381 4.17106L37.7997 4.21622C37.8819 4.27697 37.9615 4.34092 38.0103 4.42803C38.0876 4.54333 38.102 4.65714 38.1946 4.77267C38.1946 5.16659 38.0876 5.42849 37.8716 5.59169C37.8716 5.59169 37.8569 5.60889 37.8417 5.62493C37.7193 5.36235 37.6119 5.10115 37.4886 4.8388C37.3367 4.6098 37.122 4.42814 36.9982 4.16648H36.9685V4.13359C37.1534 4.08488 37.3367 4.05129 37.5966 4.05129Z" fill="#00758F"/>
    </g>
    <defs>
    <clipPath id="clip0_14_305">
    <rect width="55" height="40" fill="white"/>
    </clipPath>
    </defs>
</svg>