<svg width="41" height="40" viewBox="0 0 41 40" fill="none" xmlns="http://www.w3.org/2000/svg">
    <path d="M4.04763 25C4.48966 25 4.91358 25.1756 5.22614 25.4882C5.53871 25.8007 5.7143 26.2247 5.7143 26.6667C5.7143 27.1087 5.53871 27.5326 5.22614 27.8452C4.91358 28.1578 4.48966 28.3334 4.04763 28.3334C3.60561 28.3334 3.18168 28.1578 2.86912 27.8452C2.55656 27.5326 2.38097 27.1087 2.38097 26.6667C2.38097 26.2247 2.55656 25.8007 2.86912 25.4882C3.18168 25.1756 3.60561 25 4.04763 25ZM35.7143 28.3334H32.381V15H29.0476V11.6667H39.0476V15H35.7143V28.3334ZM27.381 11.6667V15H24.0476V18.3334H27.381V21.6667H24.0476V25H27.381V28.3334H20.7143V11.6667H27.381ZM19.0476 11.6667V28.3334H15.7143L10.7143 18.3334V28.3334H7.38097V11.6667H10.7143L15.7143 21.6667V11.6667H19.0476Z" fill="#7E13F8"/>
</svg>