<svg width="40" height="40" viewBox="0 0 40 40" fill="none" xmlns="http://www.w3.org/2000/svg">
<path d="M10.1733 9.84999C11.1467 10.64 11.51 10.58 13.3367 10.4583L30.5567 9.42499C30.9233 9.42499 30.6183 9.05832 30.4967 8.99832L27.6367 6.93166C27.0883 6.50666 26.3583 6.01832 24.96 6.13999L8.285 7.35666C7.67833 7.41666 7.55667 7.72165 7.79833 7.96499L10.1733 9.84999ZM11.2067 13.8633V31.98C11.2067 32.955 11.6933 33.3183 12.79 33.2583L31.7133 32.1633C32.8083 32.1033 32.93 31.4333 32.93 30.6417V12.6467C32.93 11.8567 32.6267 11.43 31.9567 11.4917L12.18 12.6467C11.45 12.7067 11.2067 13.0717 11.2067 13.8633ZM29.89 14.835C30.01 15.3817 29.89 15.93 29.34 15.9917L28.4283 16.1733V29.5483C27.6367 29.975 26.9067 30.2167 26.2983 30.2167C25.325 30.2167 25.0817 29.9133 24.3517 29.0017L18.3867 19.6383V28.6983L20.275 29.1233C20.275 29.1233 20.275 30.2167 18.7517 30.2167L14.5533 30.46C14.4317 30.2167 14.5533 29.61 14.98 29.4883L16.075 29.185V17.2067L14.5533 17.085C14.4317 16.5367 14.7367 15.7467 15.5883 15.685L20.0917 15.3817L26.2983 24.8683V16.4767L24.715 16.295C24.595 15.625 25.0817 15.14 25.69 15.0783L29.89 14.835ZM6.885 5.71499L24.2283 4.43832C26.3567 4.25499 26.905 4.37832 28.245 5.34999L33.78 9.24166C34.6933 9.90999 34.9983 10.0917 34.9983 10.8217V32.1633C34.9983 33.5017 34.5117 34.2917 32.8083 34.4133L12.6667 35.63C11.3883 35.69 10.78 35.5083 10.11 34.6567L6.03333 29.3667C5.30333 28.3933 5 27.665 5 26.8117V7.84166C5 6.74832 5.485 5.83666 6.885 5.71499Z" fill="#fff"/>
</svg>
