<svg width="40" height="40" viewBox="0 0 40 40" fill="none" xmlns="http://www.w3.org/2000/svg">
<g clip-path="url(#clip0_51_10)">
<path d="M35.349 8.14563C28.8025 -0.331873 16.6222 -1.89687 8.14436 4.65094C-0.332201 11.1988 -1.89564 23.3791 4.65217 31.8556C11.2012 40.3319 23.3825 41.8944 31.8578 35.3453C40.3309 28.7975 41.8947 16.6209 35.349 8.14563Z" fill="#F37036"/>
<path d="M28.4618 7.55126C27.7942 7.60466 27.1611 7.87032 26.6553 8.30939C26.0633 8.82348 25.6855 9.54076 25.5965 10.3197C25.5074 11.0987 25.7134 11.8827 26.174 12.5172C26.6342 13.1518 27.3155 13.5909 28.0835 13.748C28.8514 13.905 29.6504 13.7686 30.3228 13.3656H30.3234L30.3722 13.4144C30.5936 13.2875 30.7997 13.1355 30.9862 12.9613C31.5618 12.3525 31.8784 11.544 31.8693 10.7063C31.8602 9.86852 31.5261 9.06707 30.9375 8.47095V8.47032L28.1737 11.2169L28.125 11.1684L30.8887 8.42064C30.5688 8.11222 30.187 7.87529 29.7686 7.72552C29.3502 7.57575 28.9048 7.51657 28.4618 7.55189V7.55126ZM24.8231 12.0472C23.4981 12.045 21.3347 13.5469 16.0522 18.8294L16.0784 18.8563C16.0497 18.8463 16.0206 18.8453 16.0206 18.8453L14.0318 20.8166C13.9808 20.8651 13.947 20.9291 13.9356 20.9986C13.9242 21.0682 13.9358 21.1396 13.9687 21.2019C14.0016 21.2642 14.054 21.3141 14.1178 21.344C14.1817 21.3738 14.2535 21.382 14.3225 21.3672L17.7331 20.6397C17.7483 20.6256 17.7584 20.607 17.7618 20.5866L17.8375 20.6647L16.675 21.8178H16.6187L9.71684 28.7741L11.9312 30.9066C11.9931 30.9626 12.0712 30.9973 12.1542 31.0057C12.2372 31.0141 12.3207 30.9956 12.3925 30.9531C12.4648 30.911 12.5228 30.848 12.5588 30.7724C12.5947 30.6968 12.607 30.6121 12.594 30.5294L12.2706 29.1231C12.2503 29.0949 12.2393 29.061 12.2393 29.0263C12.2393 28.9915 12.2503 28.9576 12.2706 28.9294C15.2937 27.4881 18.1051 25.6394 20.6262 23.4347L19.209 22.0169L19.2359 22.0125L18.3953 21.1722L18.449 21.1178L18.5059 21.1759L18.4765 21.2044L20.7068 23.4834V23.4825C24.9818 19.4344 28.0162 16.1803 27.2272 13.9903C27.1912 13.7284 27.0696 13.4858 26.8812 13.3003V13.3016C26.8332 13.2661 26.7828 13.2342 26.7303 13.2059C26.7043 13.1784 26.6815 13.1503 26.654 13.1234L26.6334 13.1441C26.5753 13.109 26.5145 13.0787 26.4515 13.0534L26.5418 12.9622C25.9806 12.4622 25.5168 12.0484 24.8231 12.0466V12.0472ZM9.66872 28.8156L8.05278 30.4319V30.4331C7.9948 30.469 7.94972 30.5224 7.92406 30.5856C7.89839 30.6488 7.89345 30.7185 7.90997 30.7847C7.92591 30.8508 7.9623 30.9103 8.01398 30.9545C8.06565 30.9988 8.12997 31.0257 8.19778 31.0313L12.1578 31.3047L9.66872 28.8156Z" fill="white"/>
<path d="M28.7344 7.28437C27.8275 7.28334 26.9565 7.63917 26.3097 8.27499C25.8496 8.74597 25.5346 9.33927 25.4022 9.98424C25.2698 10.6292 25.3255 11.2986 25.5629 11.9128C24.0813 11.2784 22.0769 12.3847 15.8422 18.6181C15.8379 18.6277 15.834 18.6375 15.8307 18.6475C15.8179 18.6531 15.8054 18.6596 15.7935 18.6669L13.8219 20.6556C13.7274 20.7484 13.6653 20.8691 13.6449 21C13.6245 21.1308 13.6468 21.2647 13.7085 21.3819C13.7635 21.4746 13.8415 21.5516 13.9349 21.6055C14.0284 21.6593 14.1341 21.6882 14.2419 21.6894L14.3397 21.6259L16.9722 21.0644L15.7129 22.3353C15.7057 22.3521 15.7001 22.3694 15.696 22.3872L9.52411 28.5744C9.49951 28.5951 9.47914 28.6203 9.46411 28.6487L7.87473 30.2394C7.79562 30.323 7.74155 30.4272 7.71868 30.5401C7.69582 30.6529 7.70506 30.7699 7.74536 30.8778C7.78695 30.9849 7.85726 31.0784 7.94855 31.1482C8.03985 31.2179 8.1486 31.2611 8.26286 31.2731L12.206 31.5481C12.2734 31.5247 12.3307 31.4789 12.3685 31.4184C12.4022 31.3712 12.4203 31.3147 12.4203 31.2567C12.4203 31.1987 12.4022 31.1422 12.3685 31.095L12.3604 31.0872C12.4457 31.0428 12.5207 30.9811 12.5807 30.9059C12.6439 30.8237 12.6881 30.7285 12.7101 30.6271C12.732 30.5257 12.7312 30.4207 12.7075 30.3197L12.4 29.0112C15.3502 27.6014 18.1144 25.8316 20.6294 23.7422C20.6537 23.7563 20.6798 23.7672 20.7069 23.7744C20.7863 23.7684 20.8607 23.7344 20.9169 23.6781C25.1513 19.6687 27.6404 16.9212 27.6404 14.74C27.6498 14.4374 27.6041 14.1356 27.5057 13.8494C27.8874 14.0073 28.2944 14.0952 28.7072 14.1087L28.7025 14.11C29.2712 14.0928 29.8272 13.9373 30.3222 13.6569L30.3235 13.6572C30.3876 13.6762 30.4566 13.6701 30.5163 13.64C30.7552 13.4993 30.973 13.3255 31.1632 13.1237C31.4855 12.8076 31.7415 12.4303 31.9163 12.0141C32.0911 11.5978 32.1812 11.1509 32.1813 10.6994C32.1813 10.2479 32.0912 9.80097 31.9165 9.3847C31.7417 8.96844 31.4857 8.59118 31.1635 8.27499C31.1519 8.26461 31.1396 8.2551 31.1266 8.24655C30.4832 7.62902 29.6259 7.28434 28.7341 7.28468L28.7344 7.28437ZM28.7072 7.83812C29.3387 7.84188 29.9517 8.05192 30.4529 8.43624L27.9316 10.9728C27.9231 10.9825 27.9151 10.9927 27.9079 11.0034C27.8624 11.0494 27.8358 11.1107 27.8332 11.1753C27.8331 11.2143 27.8419 11.2529 27.8589 11.288C27.8758 11.3232 27.9004 11.3541 27.931 11.3784H27.9316L29.8379 13.2847C29.3161 13.5124 28.7377 13.5771 28.1785 13.4705C27.6193 13.3638 27.1054 13.0907 26.7041 12.6869C25.896 11.8744 25.6616 10.6544 26.0938 9.59593C26.526 8.53655 27.5563 7.84437 28.7072 7.83812ZM30.9322 8.91062C31.3445 9.40938 31.5692 10.0367 31.5675 10.6837C31.5664 11.4418 31.2642 12.1684 30.7275 12.7037C30.6199 12.805 30.5053 12.8984 30.3844 12.9834L28.846 11.4687L28.545 11.1678L28.6279 11.085L30.9319 8.90999L30.9322 8.91062ZM30.8179 10.2209C30.7613 10.2031 30.7002 10.2066 30.646 10.2306C30.5923 10.2584 30.5519 10.3062 30.5335 10.3637C30.5244 10.3924 30.5212 10.4227 30.5238 10.4526C30.5265 10.4826 30.5351 10.5118 30.5491 10.5384C30.6045 10.6552 30.6263 10.7851 30.6121 10.9136C30.598 11.042 30.5483 11.164 30.4688 11.2659C30.4484 11.2856 30.4325 11.3093 30.422 11.3356C30.4114 11.3619 30.4066 11.3901 30.4079 11.4184C30.4091 11.4759 30.4297 11.5309 30.4688 11.5722C30.5105 11.5881 30.5565 11.5881 30.5982 11.5722C30.6357 11.5816 30.6752 11.5805 30.7122 11.5691C30.7492 11.5577 30.7824 11.5364 30.8082 11.5075C30.9412 11.3445 31.0255 11.1472 31.0512 10.9383C31.0769 10.7295 31.043 10.5176 30.9535 10.3272V10.3284C30.9229 10.2772 30.8747 10.239 30.8179 10.2209ZM24.7938 12.3219C25.1709 12.3347 25.5337 12.4691 25.8282 12.705C25.5111 12.7507 25.2173 12.8976 24.9904 13.1237L17.8632 20.2191L16.4644 18.8203C20.1607 15.1416 22.4207 13.22 23.8257 12.5903C24.1152 12.408 24.4518 12.3149 24.7938 12.3219ZM26.0329 13.2469C26.2721 13.247 26.5016 13.3419 26.6713 13.5106C26.7613 13.5954 26.8324 13.6983 26.8797 13.8126C26.927 13.9268 26.9496 14.0498 26.946 14.1734C26.9419 14.2966 26.9124 14.4176 26.8595 14.5289C26.8065 14.6402 26.7312 14.7394 26.6382 14.8203L19.06 21.4159L18.2422 20.5981L25.3944 13.5106C25.5641 13.342 25.7936 13.247 26.0329 13.2469ZM26.9685 15.34C26.4404 17.4344 23.6413 20.2722 20.7225 23.0297L19.5422 21.8506L26.9685 15.34ZM16.0522 19.2334L16.1379 19.3178L17.2357 20.4156L14.2263 21.0594L16.0522 19.2334ZM17.8625 21.0584L17.8638 21.0597L18.2288 21.4331L18.2344 21.4594L18.2588 21.4631L18.3363 21.5425L18.5925 21.805L16.9097 22.0112L17.8625 21.0584ZM19.071 22.3322L20.1891 23.4497C17.7167 25.5056 15.0036 27.2534 12.1094 28.6547C12.0155 28.6994 11.9399 28.7754 11.8956 28.8695C11.8514 28.9637 11.8411 29.0703 11.8666 29.1712L12.19 30.5775C12.202 30.594 12.2084 30.6138 12.2084 30.6342C12.2084 30.6546 12.202 30.6744 12.19 30.6909C12.1723 30.7069 12.1492 30.7157 12.1254 30.7157C12.1015 30.7157 12.0784 30.7069 12.0607 30.6909L10.1538 28.7684L16.0313 22.8047L19.071 22.3322ZM9.71692 29.1884L9.98848 29.4428L11.3922 30.8466L8.26223 30.6441L9.71692 29.1884Z" fill="#F37036"/>
</g>
<defs>
<clipPath id="clip0_51_10">
<rect width="40" height="40" fill="white"/>
</clipPath>
</defs>
</svg>
