<svg width="51" height="40" viewBox="0 0 51 40" fill="none" xmlns="http://www.w3.org/2000/svg">
    <g clip-path="url(#clip0_13_202)">
    <path d="M41.8243 12.9515C41.2921 12.7876 40.7555 12.6356 40.2149 12.4959C40.3057 12.1626 40.3893 11.8333 40.4635 11.5098C41.6819 6.19734 40.8854 1.91751 38.1649 0.50839C35.5565 -0.842487 31.2907 0.56611 26.9825 3.934C26.5579 4.26652 26.1427 4.60862 25.7373 4.95997C25.466 4.72633 25.1898 4.49723 24.909 4.27278C20.3938 0.671724 15.868 -0.845995 13.1504 0.567162C10.5444 1.92225 9.77269 5.94558 10.8696 10.9803C10.9787 11.479 11.1019 11.975 11.2391 12.468C10.5985 12.6315 9.98031 12.8056 9.38871 12.9908C4.09496 14.6487 0.714294 17.2468 0.714294 19.9417C0.714294 22.7251 4.34359 25.5168 9.85726 27.2096C10.3043 27.3463 10.755 27.4729 11.209 27.5894C11.0616 28.1204 10.9307 28.655 10.8164 29.1926C9.77074 34.14 10.5873 38.0682 13.1864 39.4147C15.8707 40.8052 20.3762 39.3761 24.7631 35.9314C25.1189 35.6513 25.4667 35.3633 25.8065 35.0677C26.2455 35.4481 26.6962 35.8175 27.158 36.1754C31.4077 39.46 35.6045 40.7863 38.201 39.4361C40.8829 38.0415 41.7545 33.8215 40.6229 28.6873C40.5337 28.2851 40.4338 27.8849 40.3231 27.487C40.6395 27.4028 40.95 27.3161 41.2528 27.2259C46.9848 25.5201 50.7143 22.7622 50.7143 19.9417C50.7143 17.237 47.2244 14.6214 41.8243 12.9515ZM40.5811 25.4049C40.3077 25.4861 40.0272 25.5645 39.7412 25.6408C39.1084 23.8414 38.2545 21.928 37.2094 19.951C38.2067 18.0212 39.0278 16.1322 39.6428 14.3445C40.1543 14.4775 40.6506 14.6177 41.1291 14.7656C45.7561 16.1965 48.5784 18.3117 48.5784 19.9417C48.5784 21.6779 45.5303 23.9317 40.5811 25.4049ZM38.5276 29.06C39.028 31.3301 39.0993 33.3828 38.7678 34.9875C38.4702 36.4294 37.8713 37.3907 37.1307 37.7758C35.5551 38.5951 32.1854 37.5301 28.5512 34.721C28.1216 34.3883 27.7024 34.0449 27.294 33.6912C28.703 32.3072 30.111 30.6982 31.4852 28.9112C33.9024 28.7186 36.186 28.4035 38.2569 27.9735C38.3566 28.3337 38.4469 28.6959 38.5276 29.06ZM17.7604 37.6342C16.2209 38.1224 14.9948 38.1365 14.2536 37.7526C12.6764 36.9356 12.0207 33.7814 12.9151 29.5505C13.0214 29.0505 13.1431 28.5533 13.2801 28.0594C15.3282 28.4665 17.5952 28.7591 20.018 28.9356C21.4016 30.6842 22.8502 32.2914 24.3102 33.6987C23.9999 33.9684 23.6823 34.2312 23.3577 34.4868C21.4176 36.01 19.4737 37.0907 17.7604 37.6342ZM10.5483 25.3942C8.11019 24.6456 6.09672 23.6728 4.71664 22.6112C3.4764 21.6573 2.85043 20.7101 2.85043 19.9417C2.85043 18.3063 5.56468 16.2203 10.0918 14.8026C10.6412 14.6307 11.2162 14.4684 11.8129 14.3161C12.4387 16.1442 13.2594 18.0556 14.2498 19.9884C13.2465 21.9498 12.4141 23.8917 11.7823 25.7414C11.3678 25.6347 10.9564 25.519 10.5483 25.3942ZM12.9659 10.6117C12.0262 6.29821 12.6502 3.04436 14.2207 2.22769C15.8934 1.35786 19.5922 2.59804 23.4909 5.70751C23.7451 5.91074 23.9952 6.11808 24.2411 6.32944C22.7883 7.73067 21.353 9.32593 19.9817 11.0642C17.6301 11.26 15.3791 11.5744 13.3096 11.9956C13.1821 11.537 13.0675 11.0755 12.9659 10.6117ZM34.5336 15.3958C34.0448 14.6373 33.5379 13.8884 33.0131 13.1496C34.6084 13.3308 36.137 13.5714 37.5723 13.8654C37.1414 15.1061 36.6043 16.4031 35.9721 17.733C35.51 16.9454 35.0304 16.1661 34.5336 15.3958ZM25.7383 7.70085C26.7235 8.65962 27.7102 9.72997 28.6807 10.8914C26.712 10.8079 24.7399 10.8075 22.7711 10.8903C23.7426 9.73962 24.7377 8.67067 25.7383 7.70085ZM16.8866 15.4087C16.396 16.1729 15.9254 16.9473 15.475 17.7312C14.8532 16.4061 14.3209 15.1031 13.8864 13.8449C15.3129 13.5582 16.8342 13.3238 18.4194 13.1459C17.8888 13.8893 17.3777 14.6439 16.8866 15.4087ZM18.4649 26.874C16.8272 26.7098 15.283 26.4875 13.8569 26.2086C14.2983 24.9279 14.8422 23.5972 15.4776 22.2437C15.9297 23.0281 16.4023 23.803 16.895 24.5675C17.4016 25.3535 17.9262 26.1233 18.4649 26.874ZM25.7973 32.3179C24.7848 31.3368 23.775 30.2514 22.7889 29.084C23.7463 29.1177 24.7223 29.1349 25.7143 29.1349C26.7334 29.1349 27.7409 29.1144 28.7325 29.0747C27.7588 30.2631 26.7758 31.3501 25.7973 32.3179ZM35.9922 22.1745C36.6606 23.5429 37.2239 24.8666 37.6711 26.1254C36.2215 26.4226 34.6563 26.6619 33.0071 26.8396C33.5355 26.0871 34.0473 25.3252 34.542 24.5544C35.045 23.7708 35.5285 22.9774 35.9922 22.1745ZM32.6918 23.5958C31.9345 24.7776 31.1345 25.937 30.2932 27.0721C28.7693 27.169 27.242 27.2172 25.7143 27.2165C24.1582 27.2165 22.6448 27.1729 21.1873 27.088C20.3241 25.9555 19.5089 24.7941 18.7434 23.6063C17.9815 22.4247 17.2701 21.2176 16.6102 19.9875C17.2684 18.7571 17.9779 17.5494 18.7371 16.367L18.7369 16.3672C19.4959 15.1844 20.3047 14.0279 21.1614 12.9003C22.6483 12.7993 24.1731 12.7466 25.7141 12.7466C27.2621 12.7466 28.7891 12.7998 30.2756 12.9015C31.1237 14.0275 31.9272 15.18 32.6848 16.3568C33.4466 17.5367 34.1655 18.7385 34.8403 19.9603C34.1724 21.1947 33.4558 22.4072 32.6918 23.5958ZM37.0981 2.1705C38.7723 3.03786 39.4235 6.53558 38.3715 11.1224C38.3043 11.4151 38.2289 11.7131 38.1469 12.0154C36.0723 11.5852 33.8198 11.2654 31.4614 11.0666C30.0875 9.30927 28.6639 7.71155 27.2348 6.32839C27.6093 6.00409 27.9928 5.68821 28.3848 5.38102C32.0762 2.49558 35.5262 1.35629 37.0981 2.1705ZM25.7143 15.9312C28.1801 15.9312 30.1791 17.7268 30.1791 19.9417C30.1791 22.1566 28.1801 23.9522 25.7143 23.9522C23.2485 23.9522 21.2495 22.1566 21.2495 19.9417C21.2495 17.7268 23.2485 15.9312 25.7143 15.9312Z" fill="#00D8FF"/>
    </g>
    <defs>
    <clipPath id="clip0_13_202">
    <rect width="50" height="40" fill="white" transform="translate(0.714294)"/>
    </clipPath>
    </defs>
</svg>