<svg width="40" height="40" viewBox="0 0 40 40" fill="none" xmlns="http://www.w3.org/2000/svg">
<g clip-path="url(#clip0_61_4)">
<path d="M30.625 0H9.375C4.19733 0 0 4.19733 0 9.375V30.625C0 35.8027 4.19733 40 9.375 40H30.625C35.8027 40 40 35.8027 40 30.625V9.375C40 4.19733 35.8027 0 30.625 0Z" fill="#764ABC"/>
<path d="M26.028 25.8749C27.1813 25.7555 28.0561 24.7613 28.0163 23.5683C27.9766 22.3753 26.9824 21.4209 25.7894 21.4209H25.7099C24.477 21.4606 23.5227 22.4945 23.5624 23.7274C23.6022 24.3239 23.8408 24.8408 24.1986 25.1988C22.8466 27.8631 20.7788 29.8117 17.6769 31.4422C15.5692 32.5556 13.382 32.9533 11.1949 32.675C9.40533 32.4364 8.01361 31.6409 7.13861 30.3288C5.86611 28.3802 5.74689 26.2725 6.82048 24.1649C7.57611 22.6536 8.76908 21.5402 9.5247 20.9834C9.36564 20.4666 9.12704 19.5916 9.00767 18.9553C3.24158 23.1309 3.83798 28.7778 5.58767 31.4422C6.90017 33.4305 9.56439 34.6633 12.5072 34.6633C13.3025 34.6633 14.0978 34.5838 14.8931 34.3849C19.9835 33.3908 23.8408 30.3684 26.028 25.8749Z" fill="white"/>
<path d="M33.0269 20.9438C30.0047 17.4044 25.5508 15.4559 20.4607 15.4559H19.8244C19.4664 14.74 18.7108 14.2628 17.8758 14.2628H17.7963C16.5635 14.3027 15.6091 15.3366 15.6488 16.5694C15.6886 17.7623 16.6827 18.7167 17.8758 18.7167H17.9553C18.8302 18.677 19.5858 18.1203 19.9039 17.3647H20.6197C23.6419 17.3647 26.5052 18.2395 29.09 19.9495C31.0783 21.2619 32.51 22.9719 33.3053 25.0397C33.9814 26.7098 33.9416 28.3403 33.2258 29.7322C32.1124 31.8398 30.2433 32.9931 27.7777 32.9931C26.1871 32.9931 24.676 32.5159 23.8805 32.158C23.4432 32.5556 22.6478 33.1919 22.0911 33.5895C23.801 34.3849 25.5508 34.8224 27.221 34.8224C31.0386 34.8224 33.8621 32.7147 34.9358 30.607C36.0891 28.3006 36.0096 24.3239 33.0269 20.9438Z" fill="white"/>
<path d="M12.8253 26.5509C12.8651 27.7439 13.8592 28.6983 15.0523 28.6983H15.1318C16.3645 28.6584 17.319 27.6245 17.2792 26.3917C17.2395 25.1987 16.2453 24.2444 15.0523 24.2444H14.9726C14.8932 24.2444 14.7739 24.2444 14.6945 24.2842C13.0639 21.58 12.3879 18.6372 12.6265 15.4559C12.7856 13.07 13.5809 11.002 14.9728 9.29187C16.1259 7.82062 18.3529 7.10484 19.864 7.065C24.0793 6.98547 25.8689 12.2347 25.9881 14.3425C26.5051 14.4617 27.38 14.74 27.9765 14.9389C27.4993 8.49688 23.5226 5.15625 19.705 5.15625C16.1259 5.15625 12.8253 7.74109 11.5129 11.5587C9.68371 16.6489 10.8767 21.5402 13.1036 25.3977C12.9048 25.6759 12.7854 26.1134 12.8253 26.5509Z" fill="white"/>
</g>
<defs>
<clipPath id="clip0_61_4">
<rect width="40" height="40" fill="white"/>
</clipPath>
</defs>
</svg>
