<svg width="40" height="40" viewBox="0 0 40 40" fill="none" xmlns="http://www.w3.org/2000/svg">
    <g clip-path="url(#clip0_14_262)">
    <path d="M36.3913 2.07594C35.8313 3.42004 35.1141 4.69308 34.2547 5.86844C30.4903 2.10625 25.3862 -0.00743695 20.0641 -0.00811768C9.0575 -0.00811768 2.6944e-09 9.05688 2.6944e-09 20.0756C-4.4547e-05 22.7966 0.552356 25.4892 1.62373 27.9903C2.6951 30.4915 4.26313 32.7491 6.23281 34.6263L6.97281 35.2825C10.5894 38.3317 15.1668 40.0054 19.8972 40.0081C30.3619 40.0081 39.1587 31.8081 39.9038 21.3572C40.4509 16.2413 38.9503 9.77063 36.3913 2.07594ZM9.08344 34.7406C8.92234 34.9391 8.71899 35.0992 8.4882 35.2091C8.25742 35.3191 8.00502 35.3762 7.74938 35.3763C6.80625 35.3763 6.03469 34.6 6.03469 33.6569C6.03469 32.7138 6.81125 31.9378 7.74938 31.9378C8.14 31.9378 8.52594 32.0731 8.82812 32.3234C9.56281 32.9172 9.6775 34.0059 9.08344 34.7406ZM36.3081 28.7288C31.3572 35.3294 20.7831 33.1047 14.0031 33.4225C14.0031 33.4225 12.7994 33.4956 11.5903 33.6934C11.5903 33.6934 12.0434 33.5006 12.6325 33.2766C17.3906 31.62 19.6419 31.2969 22.5341 29.8122C27.98 27.0406 33.3634 20.9766 34.4841 14.6675C32.41 20.7369 26.1247 25.9519 20.3975 28.0722C16.4734 29.5206 9.38562 30.9272 9.38562 30.9272L9.09906 30.7759C4.27344 28.4266 4.12719 17.9706 12.8981 14.5947C16.7391 13.115 20.4131 13.9278 24.5616 12.9378C28.9913 11.8856 34.1141 8.56157 36.1984 4.22719C38.5331 11.1616 41.3425 22.0184 36.3081 28.7288Z" fill="#77BC1F"/>
    </g>
    <defs>
    <clipPath id="clip0_14_262">
    <rect width="40" height="40" fill="white"/>
    </clipPath>
    </defs>
</svg>